{
  "accessors": [
    {
      "bufferView": 2,
      "componentType": 5126,
      "count": 65532,
      "max": [
        3.0712308883666992,
        4.1421380043029785,
        3.5817220211029053
      ],
      "min": [
        -3.0712308883666992,
        -3.9605319499969482,
        -3.7704830169677734
      ],
      "type": "VEC3"
    },
    {
      "bufferView": 2,
      "byteOffset": 786384,
      "componentType": 5126,
      "count": 65532,
      "max": [
        0.99997395277023315,
        0.99945604801177979,
        0.99755752086639404
      ],
      "min": [
        -0.99999654293060303,
        -0.99992537498474121,
        -0.99989938735961914
      ],
      "type": "VEC3"
    },
    {
      "bufferView": 1,
      "componentType": 5126,
      "count": 65532,
      "max": [
        0.98786598443984985,
        0.99923598766326904
      ],
      "min": [
        0.0042730001732707024,
        0.0036609999369829893
      ],
      "type": "VEC2"
    },
    {
      "bufferView": 0,
      "componentType": 5125,
      "count": 352203,
      "max": [
        65531
      ],
      "min": [
        0
      ],
      "type": "SCALAR"
    },
    {
      "bufferView": 2,
      "byteOffset": 1572768,
      "componentType": 5126,
      "count": 65532,
      "max": [
        3.0712308883666992,
        4.1634402275085449,
        3.7346870899200439
      ],
      "min": [
        -3.0312440395355225,
        -4.1634402275085449,
        -3.7307419776916504
      ],
      "type": "VEC3"
    },
    {
      "bufferView": 2,
      "byteOffset": 2359152,
      "componentType": 5126,
      "count": 65532,
      "max": [
        0.99990648031234741,
        0.99997830390930176,
        0.99997347593307495
      ],
      "min": [
        -0.99999356269836426,
        -0.99998277425765991,
        -0.99999773502349854
      ],
      "type": "VEC3"
    },
    {
      "bufferView": 1,
      "byteOffset": 524256,
      "componentType": 5126,
      "count": 65532,
      "max": [
        0.99315899610519409,
        0.99892699718475342
      ],
      "min": [
        0.0076179997995495796,
        0.0037199999205768108
      ],
      "type": "VEC2"
    },
    {
      "bufferView": 0,
      "byteOffset": 1408812,
      "componentType": 5125,
      "count": 329469,
      "max": [
        65531
      ],
      "min": [
        0
      ],
      "type": "SCALAR"
    },
    {
      "bufferView": 2,
      "byteOffset": 3145536,
      "componentType": 5126,
      "count": 65218,
      "max": [
        3.0661571025848389,
        4.1634402275085449,
        3.7704830169677734
      ],
      "min": [
        -3.0080869197845459,
        -4.1624751091003418,
        -3.0397191047668457
      ],
      "type": "VEC3"
    },
    {
      "bufferView": 2,
      "byteOffset": 3928152,
      "componentType": 5126,
      "count": 65218,
      "max": [
        0.99994641542434692,
        0.99999701976776123,
        0.99998539686203003
      ],
      "min": [
        -0.9999772310256958,
        -0.99949938058853149,
        -0.99973535537719727
      ],
      "type": "VEC3"
    },
    {
      "bufferView": 1,
      "byteOffset": 1048512,
      "componentType": 5126,
      "count": 65218,
      "max": [
        0.99429798126220703,
        0.99992901086807251
      ],
      "min": [
        0.006926999893039465,
        0.0040429998189210892
      ],
      "type": "VEC2"
    },
    {
      "bufferView": 0,
      "byteOffset": 2726688,
      "componentType": 5125,
      "count": 301128,
      "max": [
        65217
      ],
      "min": [
        0
      ],
      "type": "SCALAR"
    }
  ],
  "asset": {
    "extras": {
      "author": "SHARK FIN (https://sketchfab.com/mo7amed85)",
      "license": "CC-BY-4.0 (http://creativecommons.org/licenses/by/4.0/)",
      "source": "https://sketchfab.com/3d-models/free-shoe-model-a71caa1ee72843e7aa4f28db13575cbe",
      "title": "FREE SHOE MODEL"
    },
    "generator": "Sketchfab-7.51.0",
    "version": "2.0"
  },
  "bufferViews": [
    {
      "buffer": 0,
      "byteLength": 3931200,
      "byteOffset": 0,
      "name": "floatBufferViews",
      "target": 34963
    },
    {
      "buffer": 0,
      "byteLength": 1570256,
      "byteOffset": 3931200,
      "byteStride": 8,
      "name": "floatBufferViews",
      "target": 34962
    },
    {
      "buffer": 0,
      "byteLength": 4710768,
      "byteOffset": 5501456,
      "byteStride": 12,
      "name": "floatBufferViews",
      "target": 34962
    }
  ],
  "buffers": [
    {
      "byteLength": 10212224,
      "uri": "scene.bin"
    }
  ],
  "extensionsRequired": [
    "KHR_materials_pbrSpecularGlossiness"
  ],
  "extensionsUsed": [
    "KHR_materials_pbrSpecularGlossiness"
  ],
  "images": [
    {
      "uri": "textures/model_diffuse.jpeg"
    }
  ],
  "materials": [
    {
      "doubleSided": true,
      "emissiveFactor": [
        0,
        0,
        0
      ],
      "extensions": {
        "KHR_materials_pbrSpecularGlossiness": {
          "diffuseFactor": [
            1,
            1,
            1,
            1
          ],
          "diffuseTexture": {
            "index": 0,
            "texCoord": 0
          },
          "glossinessFactor": 0,
          "specularFactor": [
            0,
            0,
            0
          ]
        }
      },
      "name": "model"
    }
  ],
  "meshes": [
    {
      "primitives": [
        {
          "attributes": {
            "NORMAL": 1,
            "POSITION": 0,
            "TEXCOORD_0": 2
          },
          "indices": 3,
          "material": 0,
          "mode": 4
        }
      ]
    },
    {
      "primitives": [
        {
          "attributes": {
            "NORMAL": 5,
            "POSITION": 4,
            "TEXCOORD_0": 6
          },
          "indices": 7,
          "material": 0,
          "mode": 4
        }
      ]
    },
    {
      "primitives": [
        {
          "attributes": {
            "NORMAL": 9,
            "POSITION": 8,
            "TEXCOORD_0": 10
          },
          "indices": 11,
          "material": 0,
          "mode": 4
        }
      ]
    }
  ],
  "nodes": [
    {
      "children": [
        1
      ],
      "name": "RootNode (gltf orientation matrix)",
      "rotation": [
        -0.70710678118654746,
        -0,
        -0,
        0.70710678118654757
      ]
    },
    {
      "children": [
        2
      ],
      "name": "RootNode (model correction matrix)"
    },
    {
      "children": [
        3,
        4,
        5
      ],
      "name": "model.obj.cleaner.materialmerger.gles"
    },
    {
      "mesh": 0,
      "name": ""
    },
    {
      "mesh": 1,
      "name": ""
    },
    {
      "mesh": 2,
      "name": ""
    }
  ],
  "samplers": [
    {
      "magFilter": 9729,
      "minFilter": 9987,
      "wrapS": 10497,
      "wrapT": 10497
    }
  ],
  "scene": 0,
  "scenes": [
    {
      "name": "OSG_Scene",
      "nodes": [
        0
      ]
    }
  ],
  "textures": [
    {
      "sampler": 0,
      "source": 0
    }
  ]
}

